<?xml version="1.0" encoding="utf-8"?>
<!-- Generator: Adobe Illustrator 22.1.0, SVG Export Plug-In . SVG Version: 6.00 Build 0)  -->
<svg version="1.1" id="Layer_1" xmlns="http://www.w3.org/2000/svg" xmlns:xlink="http://www.w3.org/1999/xlink" x="0px" y="0px"
	 viewBox="87 120 258 48" style="enable-background:new 0 0 432 288;" xml:space="preserve">
<style type="text/css">
	.st0{fill:#97D5CC;}
	.st1{fill:#178A7C;}
	.st2{fill:#27B6A3;}
	.st3{fill:#939598;}
</style>
<g>
	<rect x="88.773" y="149.394" class="st0" width="7.2" height="7.2"/>
	<rect x="97.773" y="140.394" class="st0" width="7.2" height="7.2"/>
	<rect x="106.773" y="131.394" class="st0" width="7.2" height="7.2"/>
</g>
<g>
	<rect x="97.773" y="158.394" class="st1" width="7.2" height="7.2"/>
	<rect x="106.773" y="158.394" class="st1" width="7.2" height="7.2"/>
	<rect x="115.773" y="158.394" class="st1" width="7.2" height="7.2"/>
	<rect x="106.773" y="149.394" class="st1" width="7.2" height="7.2"/>
	<rect x="115.773" y="149.394" class="st1" width="7.2" height="7.2"/>
	<rect x="115.773" y="140.394" class="st1" width="7.2" height="7.2"/>
	<rect x="124.791" y="140.394" class="st1" width="7.2" height="7.2"/>
	<rect x="124.791" y="158.394" class="st1" width="7.2" height="7.2"/>
	<rect x="124.791" y="149.394" class="st1" width="7.2" height="7.2"/>
	<rect x="124.791" y="131.394" class="st1" width="7.2" height="7.2"/>
</g>
<g>
	<rect x="88.773" y="158.394" class="st2" width="7.2" height="7.2"/>
	<rect x="97.773" y="149.394" class="st2" width="7.2" height="7.2"/>
	<rect x="106.773" y="140.394" class="st2" width="7.2" height="7.2"/>
	<rect x="124.791" y="122.394" class="st2" width="7.2" height="7.2"/>
</g>
<g>
	<path d="M161.979,131.975c0,1.525-0.262,2.919-0.789,4.179c-0.526,1.262-1.258,2.342-2.192,3.24s-2.047,1.593-3.335,2.083
		c-1.29,0.49-2.687,0.735-4.194,0.735c-1.507,0-2.899-0.246-4.179-0.735c-1.28-0.49-2.387-1.185-3.322-2.083
		c-0.934-0.898-1.666-1.978-2.192-3.24c-0.526-1.261-0.789-2.655-0.789-4.179c0-1.543,0.262-2.935,0.789-4.179
		c0.526-1.243,1.258-2.301,2.192-3.172c0.934-0.871,2.042-1.543,3.322-2.015s2.672-0.708,4.179-0.708
		c1.507,0,2.904,0.236,4.194,0.708c1.288,0.472,2.4,1.143,3.335,2.015c0.934,0.871,1.666,1.929,2.192,3.172
		C161.716,129.039,161.979,130.432,161.979,131.975z M156.996,131.975c0-0.834-0.136-1.615-0.408-2.342
		c-0.272-0.726-0.65-1.347-1.13-1.865c-0.482-0.518-1.062-0.926-1.743-1.225c-0.682-0.3-1.429-0.45-2.247-0.45
		c-0.816,0-1.562,0.15-2.232,0.45c-0.672,0.299-1.253,0.707-1.742,1.225c-0.491,0.518-0.867,1.139-1.131,1.865
		c-0.262,0.726-0.394,1.507-0.394,2.342c0,0.871,0.136,1.674,0.408,2.41c0.272,0.735,0.648,1.367,1.13,1.892
		c0.482,0.527,1.058,0.94,1.73,1.239c0.67,0.299,1.416,0.449,2.232,0.449c0.818,0,1.562-0.15,2.232-0.449
		c0.672-0.299,1.253-0.712,1.742-1.239c0.491-0.526,0.872-1.157,1.144-1.892C156.86,133.649,156.996,132.846,156.996,131.975z"/>
	<path d="M179.704,128.354c0,1.126-0.208,2.074-0.626,2.845c-0.418,0.772-0.981,1.394-1.688,1.866
		c-0.709,0.472-1.525,0.817-2.451,1.034c-0.925,0.218-1.888,0.326-2.887,0.326h-2.314v7.27h-4.656v-19.277h7.079
		c1.053,0,2.039,0.104,2.955,0.313c0.915,0.209,1.715,0.545,2.395,1.007c0.682,0.463,1.216,1.071,1.606,1.824
		C179.509,126.316,179.704,127.246,179.704,128.354z M175.048,128.381c0-0.454-0.091-0.826-0.272-1.116
		c-0.181-0.29-0.427-0.518-0.734-0.681c-0.309-0.164-0.659-0.273-1.05-0.327c-0.39-0.054-0.794-0.082-1.211-0.082h-2.042v4.547h1.96
		c0.435,0,0.853-0.036,1.253-0.109c0.398-0.073,0.758-0.2,1.075-0.382c0.317-0.181,0.568-0.422,0.749-0.722
		C174.957,129.211,175.048,128.835,175.048,128.381z"/>
	<path d="M197.081,128.354c0,1.126-0.208,2.074-0.626,2.845c-0.418,0.772-0.981,1.394-1.688,1.866
		c-0.709,0.472-1.525,0.817-2.451,1.034c-0.925,0.218-1.888,0.326-2.887,0.326h-2.314v7.27h-4.656v-19.277h7.079
		c1.053,0,2.039,0.104,2.955,0.313c0.915,0.209,1.715,0.545,2.395,1.007c0.682,0.463,1.216,1.071,1.606,1.824
		C196.886,126.316,197.081,127.246,197.081,128.354z M192.425,128.381c0-0.454-0.091-0.826-0.272-1.116
		c-0.181-0.29-0.427-0.518-0.734-0.681c-0.309-0.164-0.659-0.273-1.05-0.327c-0.39-0.054-0.794-0.082-1.211-0.082h-2.042v4.547h1.96
		c0.435,0,0.853-0.036,1.253-0.109c0.398-0.073,0.758-0.2,1.075-0.382c0.317-0.181,0.568-0.422,0.749-0.722
		C192.333,129.211,192.425,128.835,192.425,128.381z"/>
	<path d="M219.846,131.975c0,1.525-0.262,2.919-0.789,4.179c-0.526,1.262-1.258,2.342-2.192,3.24
		c-0.934,0.898-2.047,1.593-3.335,2.083c-1.29,0.49-2.687,0.735-4.194,0.735c-1.507,0-2.899-0.246-4.179-0.735
		c-1.28-0.49-2.387-1.185-3.322-2.083c-0.934-0.898-1.666-1.978-2.192-3.24c-0.526-1.261-0.789-2.655-0.789-4.179
		c0-1.543,0.262-2.935,0.789-4.179c0.526-1.243,1.258-2.301,2.192-3.172c0.934-0.871,2.042-1.543,3.322-2.015
		c1.28-0.472,2.672-0.708,4.179-0.708c1.507,0,2.904,0.236,4.194,0.708c1.288,0.472,2.4,1.143,3.335,2.015
		c0.934,0.871,1.666,1.929,2.192,3.172C219.584,129.039,219.846,130.432,219.846,131.975z M214.863,131.975
		c0-0.834-0.136-1.615-0.408-2.342c-0.272-0.726-0.65-1.347-1.13-1.865c-0.482-0.518-1.062-0.926-1.742-1.225
		c-0.682-0.3-1.429-0.45-2.247-0.45c-0.816,0-1.562,0.15-2.232,0.45c-0.672,0.299-1.253,0.707-1.743,1.225
		c-0.491,0.518-0.867,1.139-1.131,1.865c-0.262,0.726-0.394,1.507-0.394,2.342c0,0.871,0.136,1.674,0.408,2.41
		c0.272,0.735,0.648,1.367,1.13,1.892c0.482,0.527,1.058,0.94,1.73,1.239c0.67,0.299,1.416,0.449,2.232,0.449
		c0.818,0,1.562-0.15,2.232-0.449c0.672-0.299,1.253-0.712,1.742-1.239c0.491-0.526,0.872-1.157,1.144-1.892
		C214.727,133.649,214.863,132.846,214.863,131.975z"/>
	<path d="M232.979,141.695l-4.184-7.651h-1.587v7.651h-4.547v-19.277h7.352c0.925,0,1.827,0.095,2.709,0.286
		c0.88,0.19,1.669,0.513,2.368,0.966c0.699,0.454,1.258,1.053,1.675,1.797c0.418,0.745,0.626,1.671,0.626,2.778
		c0,1.306-0.354,2.405-1.062,3.295c-0.707,0.89-1.688,1.525-2.939,1.906l5.037,8.25H232.979z M232.788,128.326
		c0-0.454-0.096-0.822-0.286-1.103c-0.192-0.281-0.438-0.498-0.739-0.653s-0.638-0.259-1.013-0.314
		c-0.373-0.054-0.734-0.082-1.08-0.082h-2.49v4.493h2.216c0.382,0,0.774-0.032,1.176-0.095c0.402-0.064,0.766-0.178,1.094-0.341
		s0.598-0.399,0.808-0.708C232.684,129.216,232.788,128.816,232.788,128.326z"/>
	<path d="M249.295,126.393v15.303h-4.656v-15.303h-5.445v-3.975h15.548v3.975H249.295z"/>
	<path d="M273.63,137.597c-0.39,0.953-0.949,1.77-1.674,2.451c-0.726,0.681-1.603,1.211-2.627,1.593
		c-1.026,0.381-2.165,0.572-3.418,0.572c-1.27,0-2.415-0.191-3.431-0.572c-1.016-0.382-1.879-0.912-2.587-1.593
		c-0.707-0.681-1.251-1.498-1.634-2.451c-0.381-0.953-0.571-2.011-0.571-3.172v-12.007h4.629v11.626
		c0,0.526,0.067,1.026,0.205,1.498c0.136,0.472,0.344,0.894,0.626,1.266s0.653,0.667,1.117,0.885
		c0.462,0.218,1.021,0.327,1.674,0.327s1.211-0.11,1.675-0.327c0.462-0.218,0.838-0.513,1.13-0.885
		c0.29-0.372,0.499-0.794,0.626-1.266s0.19-0.971,0.19-1.498v-11.626h4.656v12.007C274.215,135.587,274.02,136.645,273.63,137.597z"
		/>
	<path d="M290.146,141.695l-7.76-12.606h-0.082l0.109,12.606h-4.52v-19.277h5.309l7.733,12.579h0.082l-0.109-12.579h4.52v19.277
		H290.146z"/>
	<path d="M299.376,141.695v-19.277h4.683v19.277H299.376z"/>
	<path d="M316.942,126.393v15.303h-4.656v-15.303h-5.445v-3.975h15.548v3.975H316.942z"/>
	<path d="M335.821,133.527v8.169h-4.656v-8.169l-7.242-11.109h5.635l4.112,7.133l4.111-7.133h5.445L335.821,133.527z"/>
</g>
<g>
	<path class="st3" d="M142.816,165.625v-19.305h4.69v19.305H142.816z"/>
	<path class="st3" d="M164.332,165.625L156.561,153h-0.082l0.109,12.625h-4.527v-19.305h5.317l7.744,12.597h0.082l-0.109-12.597
		h4.527v19.305H164.332z"/>
	<path class="st3" d="M184.536,151.337c-0.399-0.509-0.923-0.913-1.567-1.214c-0.646-0.3-1.268-0.449-1.868-0.449
		c-0.309,0-0.622,0.027-0.941,0.082c-0.317,0.054-0.604,0.159-0.859,0.313c-0.255,0.155-0.468,0.355-0.641,0.6
		c-0.173,0.245-0.258,0.559-0.258,0.941c0,0.327,0.067,0.6,0.204,0.818c0.136,0.218,0.337,0.409,0.601,0.573
		c0.263,0.163,0.577,0.313,0.941,0.449c0.364,0.136,0.772,0.277,1.226,0.423c0.655,0.218,1.336,0.459,2.046,0.723
		c0.708,0.264,1.354,0.613,1.936,1.05c0.582,0.436,1.064,0.977,1.445,1.622c0.381,0.646,0.572,1.449,0.572,2.413
		c0,1.109-0.205,2.068-0.614,2.876c-0.409,0.809-0.958,1.477-1.649,2.005c-0.692,0.527-1.482,0.918-2.373,1.172
		c-0.891,0.255-1.809,0.382-2.753,0.382c-1.383,0-2.718-0.241-4.009-0.723c-1.29-0.482-2.364-1.168-3.218-2.059l3.054-3.109
		c0.473,0.582,1.094,1.069,1.868,1.459c0.772,0.391,1.54,0.586,2.304,0.586c0.345,0,0.681-0.036,1.008-0.109
		c0.327-0.073,0.614-0.191,0.859-0.355c0.245-0.163,0.441-0.381,0.586-0.654c0.146-0.273,0.218-0.6,0.218-0.982
		c0-0.363-0.091-0.672-0.272-0.927c-0.181-0.254-0.441-0.486-0.777-0.695c-0.337-0.208-0.755-0.399-1.255-0.572
		c-0.5-0.173-1.067-0.359-1.703-0.559c-0.619-0.199-1.223-0.436-1.814-0.709c-0.591-0.272-1.117-0.623-1.582-1.05
		c-0.463-0.427-0.836-0.945-1.117-1.554c-0.282-0.609-0.423-1.35-0.423-2.223c0-1.072,0.218-1.99,0.654-2.754
		s1.01-1.391,1.718-1.881c0.71-0.491,1.509-0.85,2.4-1.078c0.889-0.227,1.79-0.341,2.698-0.341c1.091,0,2.205,0.2,3.341,0.6
		c1.136,0.4,2.131,0.991,2.985,1.772L184.536,151.337z"/>
	<path class="st3" d="M191.221,165.625v-19.305h4.69v19.305H191.221z"/>
	<path class="st3" d="M214.328,165.652c-1.264,0.309-2.641,0.464-4.131,0.464c-1.545,0-2.968-0.246-4.267-0.736
		c-1.3-0.491-2.418-1.182-3.354-2.073c-0.936-0.89-1.668-1.958-2.195-3.204c-0.527-1.245-0.79-2.631-0.79-4.158
		c0-1.545,0.268-2.944,0.804-4.199c0.535-1.254,1.276-2.322,2.221-3.204c0.945-0.881,2.054-1.558,3.328-2.031
		c1.271-0.473,2.644-0.709,4.117-0.709c1.527,0,2.945,0.232,4.254,0.695c1.308,0.463,2.372,1.086,3.189,1.868l-2.944,3.354
		c-0.455-0.527-1.054-0.958-1.799-1.295c-0.747-0.337-1.591-0.505-2.537-0.505c-0.817,0-1.572,0.15-2.263,0.45
		c-0.692,0.3-1.292,0.718-1.799,1.254c-0.51,0.537-0.905,1.172-1.187,1.908s-0.421,1.541-0.421,2.413
		c0,0.891,0.127,1.709,0.381,2.454c0.255,0.746,0.631,1.387,1.131,1.923s1.118,0.954,1.854,1.254c0.737,0.3,1.577,0.45,2.522,0.45
		c0.546,0,1.064-0.041,1.554-0.123c0.49-0.082,0.945-0.213,1.364-0.395v-3.517h-3.681v-3.763h7.962v10.226
		C216.696,164.943,215.59,165.343,214.328,165.652z"/>
	<path class="st3" d="M234.273,165.625v-8.071h-7.527v8.071h-4.663v-19.305h4.663v7.307h7.527v-7.307h4.661v19.305H234.273z"/>
	<path class="st3" d="M251.848,150.3v15.325h-4.663V150.3h-5.453v-3.98h15.571v3.98H251.848z"/>
	<path class="st3" d="M270.558,151.337c-0.399-0.509-0.923-0.913-1.567-1.214c-0.646-0.3-1.268-0.449-1.868-0.449
		c-0.309,0-0.622,0.027-0.941,0.082c-0.317,0.054-0.604,0.159-0.859,0.313c-0.255,0.155-0.468,0.355-0.641,0.6
		c-0.173,0.245-0.258,0.559-0.258,0.941c0,0.327,0.067,0.6,0.203,0.818c0.136,0.218,0.337,0.409,0.601,0.573
		c0.263,0.163,0.577,0.313,0.941,0.449c0.364,0.136,0.772,0.277,1.226,0.423c0.655,0.218,1.336,0.459,2.046,0.723
		c0.708,0.264,1.354,0.613,1.936,1.05c0.582,0.436,1.064,0.977,1.445,1.622c0.381,0.646,0.572,1.449,0.572,2.413
		c0,1.109-0.205,2.068-0.614,2.876c-0.409,0.809-0.958,1.477-1.649,2.005c-0.692,0.527-1.482,0.918-2.373,1.172
		c-0.891,0.255-1.809,0.382-2.753,0.382c-1.383,0-2.718-0.241-4.009-0.723c-1.29-0.482-2.364-1.168-3.218-2.059l3.054-3.109
		c0.473,0.582,1.094,1.069,1.868,1.459c0.772,0.391,1.54,0.586,2.304,0.586c0.345,0,0.681-0.036,1.008-0.109
		c0.327-0.073,0.614-0.191,0.859-0.355c0.245-0.163,0.441-0.381,0.586-0.654c0.146-0.273,0.218-0.6,0.218-0.982
		c0-0.363-0.091-0.672-0.272-0.927c-0.181-0.254-0.441-0.486-0.777-0.695c-0.337-0.208-0.755-0.399-1.255-0.572
		s-1.067-0.359-1.703-0.559c-0.619-0.199-1.223-0.436-1.814-0.709c-0.591-0.272-1.117-0.623-1.582-1.05
		c-0.463-0.427-0.836-0.945-1.117-1.554c-0.282-0.609-0.423-1.35-0.423-2.223c0-1.072,0.218-1.99,0.654-2.754
		s1.01-1.391,1.718-1.881c0.71-0.491,1.509-0.85,2.4-1.078c0.889-0.227,1.79-0.341,2.698-0.341c1.091,0,2.205,0.2,3.341,0.6
		c1.136,0.4,2.131,0.991,2.985,1.772L270.558,151.337z"/>
</g>
</svg>
